<svg xmlns="http://www.w3.org/2000/svg" viewBox="0 0 612.22 439.43"><defs><style>.cls-1{fill:#ffffff;}</style></defs><g id="Layer_2" data-name="Layer 2"><g id="Layer_1-2" data-name="Layer 1"><path class="cls-1" d="M282,260c.48,11.57,11.55,17.63,22.79,14,4.13,7.79,8.29,15.61,12.85,24.18-5.79-2.69-10.79-5.12-15.87-7.35-48.16-21.18-97.87-38.1-147.9-54.2-24.16-7.78-48.62-14.83-71.17-26.88-5.71-3-11.19-6.52-16.77-9.8-.74-.44-1.41-1-2.17-1.38-4.27-2.29-6.15-1.1-7.2,3.73-.5,2.32-2,4.46-3.38,6.51a2.52,2.52,0,0,1-2.44.32,42.69,42.69,0,0,1-5.62-5.3c-.48-.56-.09-1.89-.09-2.87q0-68.28,0-136.56V59.8c-6.46.84-12.56,1.72-18.68,2.4-5.78.64-11.64,1.74-17.38,1.38S0,58.61,0,53.31c0-4.4,3.06-7.56,8.92-8.55q20.94-3.55,41.93-6.84c21.09-3.34,42.18-6.67,63.29-9.86,16.52-2.51,33.09-4.7,49.6-7.23,18.94-2.91,37.83-6.11,56.76-9.07,15.67-2.44,31.38-4.66,47.06-7.08,8.81-1.36,17.53-3.54,26.38-4.22a133.85,133.85,0,0,1,26.25.38c19.26,2.32,38.44,5.36,57.62,8.34C399.87,12.6,421.89,16.35,444,19.8c21.69,3.4,43.41,6.58,65.12,9.9,25,3.83,49.91,7.73,74.87,11.55,6,.93,12.07,1.75,18.11,2.54,8.23,1.07,11.28,4.91,9.82,12.53-.86,4.49-3.44,7.21-8,7-7.66-.3-15.3-1.13-22.94-1.89-4.94-.49-9.85-1.25-15-1.93-.11,1.65-.23,2.72-.23,3.79q0,98,0,196c0,6.11-1.75,8.62-7.18,9.86-2.87.65-4.71-.49-4.55-3.43.24-4.25-2.31-5.13-5.62-5.63-22.55-3.4-45.19-6.27-67.58-10.49-13.25-2.49-26.25-6.67-39.09-10.9-15.06-5-29.35-3.85-43.86,2.12-16.95,7-34.21,13.19-51.34,19.73-6.53,2.49-6.71,3.94-6.17,10.74.64,8.1.16,16.31-.23,24.45-.15,3.23-4.5,6.45-8.15,6.92s-6.15-.68-8.09-4.39c2.25-.44,4.3-1,6.39-1.23,3.51-.38,5.65-1.71,6.58-5.55,1.2-5,1.1-9.47-1.08-14.21-5.32-11.57-13.38-20.32-24.92-25.84-5.85-2.79-11.59-5.78-17.37-8.72-.73-.38-1.69-.83-2-1.5-1.87-4.34-5.79-5.56-9.75-7q-13.23-4.86-26.29-10.2c-1.39-.57-2.4-2.14-3.54-3.29-2.22-2.23-4-5.2-6.67-6.62a73.72,73.72,0,0,1-20.34-15.87,104.11,104.11,0,0,0-10.3-9.36,8,8,0,0,0-3.27-1.46c-3.32-.81-6.67-1.47-10-2.18A29.92,29.92,0,0,1,189,180.17a28.15,28.15,0,0,0-39.92,7.76c-3.55,5.51-2.47,11.18,3.11,15.47,3.12,2.4,6,4.58,7.26,8.76.53,1.75,3.52,3,5.62,4,1.35.6,3.13.3,4.72.3,4.41,0,7.82,1.65,9.85,5.72.16.32.38.63.57.94,3.4,5.55,4.72,6,11,3.43,4.93,8.44,13.81,11.31,22.09,15.13,3.1,1.43,6.14,3,9.09,4.75,4.42,2.58,9,4.35,14.24,3.94,1.28-.1,2.71.75,4,1.37q5.85,2.88,11.61,5.95c4.49,2.39,9.09,4.62,13.36,7.36,3.38,2.17,6.42,2.4,10.1-.3C277.76,263.21,279.77,261.69,282,260ZM553.64,57.4c-11.48-1.95-22.86-4-34.3-5.79-20.28-3.09-40.61-5.83-60.89-9-24.22-3.73-48.39-7.83-72.62-11.53-22.43-3.42-44.86-7-67.4-9.54a128.54,128.54,0,0,0-31,.4c-24.42,3.21-48.69,7.52-73,11.29-21.82,3.39-43.66,6.63-65.48,10q-31.84,4.91-63.67,9.9c-7.48,1.17-15,2.34-22.42,3.61-4.89.83-6.16,2.45-6.23,7.41,0,1,0,2,0,2.94-.06,5.21.82,5.94,5.69,7.94,5.49,2.26,11.09,4.6,16,7.87C89,90,99.39,97.55,109.69,105.2c12.79,9.51,26.85,15.46,42.86,16.22,13.92.65,27.85,1,41.78,1.56,12.83.49,25.66,1,38.49,1.56,20,.78,40.06,2.68,59.71-3.1,1.82-.54,4.09-1.28,5.06-2.68a16.85,16.85,0,0,1,10.59-7.29c3.09-.64,4.7-2.32,6.4-4.77,8.53-12.33,19.36-21.93,34.63-24.34,8.55-1.35,17.72-2.52,24.65,5.29.52.59,1.64.64,2.72,1,.2-2,.35-3.56.55-5.61,3.45.32,6.69.67,9.93.92,4.7.36,4.89.54,5.07,5.58L385.5,89c2.06,4.23,3.77,7.85,5.57,11.42,2.21,4.38,4.15,5.16,8.94,3.69a28.36,28.36,0,0,0,15.4-11.25l2.21-3.1,6.28,4.81a51.87,51.87,0,0,1-4.51,4.66c-5,4-7.27,9.15-7.92,15.44s1.45,8.52,7.71,6.75c.47-.14.9-.39,1.35-.57,5.1-2,10.21-4,15.29-6.15,3.79-1.56,4.86-3.6,4.28-7.83-.25-1.84-.55-3.69-.83-5.53l.9-.62c1.86,1.43,4.42,2.47,5.47,4.35,4.57,8.19,9.43,16.33,12.81,25,5.22,13.42,9.21,27.31,13.93,40.93,3.23,9.33,9.34,13.79,19,13.52a177.22,177.22,0,0,0,24.05-1.91c10.34-1.69,20.5-4.46,30.78-6.55,6.5-1.32,7.64-2.4,7.64-8.87q0-53-.07-106.09C553.82,60,553.72,59,553.64,57.4ZM262.49,165.66c-4.61,4.69-5.17,8.72-2.2,13.18a31.71,31.71,0,0,0,4.44,5.36c8.39,8,17,15.82,25.29,24,5.84,5.75,12.36,8.82,20.71,8.15a14.48,14.48,0,0,1,12.2,4.8c4.29,5.08,12.29,5.14,17.35.51,3-2.75,3-4.51,0-7.23a7.33,7.33,0,0,1-2.17-2.4c-2.7-7.15-8.21-11.3-14.83-14.43A94.14,94.14,0,0,1,299.6,181.7c-5.76-5.31-10.62-11.18-11.64-19.36s2.59-11.3,10.65-9.72c6.24,1.22,10,5.82,14.37,9.64,1,.89,2,1.8,3,2.7l.91-.68c-.57-1.2-.87-2.7-1.76-3.57-4.53-4.39-8.63-9.66-14-12.67-7.8-4.38-16.5-7.2-24.91-10.46-3.59-1.39-7.41-2.18-11.28-3.3-2.43,8.25-1.37,15.69,1.8,23a76.9,76.9,0,0,0,27.25,32.88c3.34,2.33,6.39,5.06,10.28,8.17a42.62,42.62,0,0,1-20.81-3.91c-4.81-2.12-7.95-5.66-10.32-10.39C270.09,177.82,266.25,172,262.49,165.66Zm104.7,79.77c3.11-3.46,5.9-6.83,9-9.93,4-4.08,4-6.24-1-9.36a13.17,13.17,0,0,0-5-2c-4.7-.66-9.44-1-14.16-1.4-3.63-.31-5.75,1.7-5.93,5a48.19,48.19,0,0,0,.75,10.85c1,5.91,2.74,6.74,7.88,4.06,2-1,3.5-1.27,5.16.46A23.58,23.58,0,0,0,367.19,245.43ZM141.11,191.57c8-5.16,14.24-19.22,11.33-25.33C145.61,173.26,140.73,180.93,141.11,191.57ZM253.7,170c4.23-1,3.64-4.1,3.26-6.7-1-7-7.79-16.15-11.87-15.91C248,154.92,250.8,162.35,253.7,170Zm52.6-49.8c-1.8,1.94-2.95,3.35-4.28,4.59-2.08,1.94-2,3.68.2,5.42,2.39,1.88,4.72,3.83,7.18,5.61a3,3,0,0,0,2.26.12c.25-.08.42-1.31.21-1.85C310.18,129.68,308.38,125.32,306.3,120.18Z"/><path class="cls-1" d="M372.62,392.58V321.32c8.6,0,17-.17,25.38.06,7.31.2,14.61.79,21.91,1.35,8,.62,16.13,1,24.07,2.22A21.2,21.2,0,0,1,462,347.63c-.53,5.5-3.74,9.08-8.14,11.95-6.43,4.19-6.73,5.52-2.3,11.82,4.07,5.8,8.34,11.45,12.49,17.2.69,1,1.21,2.06,2.27,3.89-9.23,0-17.84-.19-26.43.06-7.46.22-12.65-2.69-16.59-9.09-3.69-6-9.16-11-10-18.46a76.46,76.46,0,0,1,0-9.81c0-2.81,1.78-3.74,4.29-3.87a31.74,31.74,0,0,0,3.64-.45c2.4-.38,4.79-1,4.77-4s-1.34-5.8-4.63-6.12c-4.2-.4-8.48-.1-13.13-.1-.18,2-.53,4.18-.53,6.33q0,19.28.06,38.54c0,5.69-1.16,7.06-6.73,7.08C391.69,392.61,382.3,392.58,372.62,392.58Z"/><path class="cls-1" d="M577.91,392.43c-8.81,0-17.22-.11-25.62,0s-9.51-.68-9.46-9.65c0-10.88,0-21.77,0-32.65,0-.37,0-.74,0-1.1-.1-5.82-1.85-8.32-5.9-8.45-5.13-.17-9.63,3.37-10,8.14a20.7,20.7,0,0,0,.51,5.81,3,3,0,0,0,1.84,1.75,46.3,46.3,0,0,0,5.29,1.14v17.45c-.14.1-.31.36-.51.39-7.11,1-7.1,1-7.23,8.27a24.61,24.61,0,0,1-.24,4.39c-.53,2.63-1.92,4.42-4.94,4.43q-13.58,0-27.15.18c-2,0-2.87-.58-2.86-2.7.1-15.89.18-31.79.15-47.69,0-6.32,3.13-10.63,8.27-13.7,9.55-5.71,20.15-8,31-8.83,10.69-.84,21.19.24,31.29,4.27s15.43,11,15.54,22.05C578,361.22,577.91,376.49,577.91,392.43Z"/><path class="cls-1" d="M93.5,392.37c0-14.93,0-29.35,0-43.77,0-7.17-6.13-10.73-12.46-7-1.42.84-2.29,2.91-3,4.58-.44,1.05-.11,2.42-.11,3.64,0,5.91,0,5.85,5.59,7.34.93.24,2.3,1.3,2.33,2,.2,5.22.1,10.46.1,15.8l-8.06,1.37c0,3.58,0,7,0,10.36,0,4.1-1.32,5.73-5.33,5.77-9,.11-18.1,0-27.15.09-2.15,0-2.85-1-2.87-2.82,0-3.9,0-7.81-.06-11.71-.09-9-.1-18.09-.34-27.12-.36-13.57,5.22-22.26,18-27,11.31-4.15,23.16-5.05,35-4a87.82,87.82,0,0,1,19.56,4.3c8.8,2.94,12.26,8.49,12.42,17.77.26,15,.43,30.08.78,45.11.07,3.27-1.49,5.07-4.4,5.12C113.68,392.49,103.8,392.37,93.5,392.37Z"/><path class="cls-1" d="M196.37,376.27c0,3.5.13,6.66,0,9.81-.21,4.35-2.08,6.25-6.33,6.3-9.26.09-18.52,0-28,0-.08-1.51-.2-2.7-.2-3.89,0-12.84-.08-25.69.05-38.53A47.27,47.27,0,0,1,163,339.85c2.2-9.43,9.3-13.72,17.92-15.86a122.93,122.93,0,0,1,48.32-2c11.31,1.72,18.88,10.84,19,22.23.21,14.07.05,28.14.11,42.2,0,3.15-1.36,5.66-4.38,5.75-9.86.29-19.73.11-30.07.11,0-1.53,0-2.84,0-4.15q.11-19.26.22-38.53c0-6.15-2.55-8.83-8.58-8.85-6.58,0-9.33,2.65-9.24,9a30.29,30.29,0,0,1,0,3.3c-.18,1.91.57,2.78,2.47,3.31,8.42,2.36,11.51,9.9,7.38,17.88-.33.64-1.51,1-2.35,1.17C201.49,375.78,199.09,376,196.37,376.27Z"/><path class="cls-1" d="M278.33,372.65c4.53,0,8.53.12,12.51-.06a12.44,12.44,0,0,0,4.5-1.35c2.46-1.16,3-3.17,1.6-5.45-2.15-3.41-4.43-6.74-6.75-10-7.41-10.49-5.73-20.05,5-27.33,12.35-8.43,26.09-9.62,40.35-7.21,4.36.73,6.14,3.51,6,7.9a32.6,32.6,0,0,1-.71,4.69c-1.1,5.94-1.17,5.66-6.88,7.06-2.89.71-6.72,2-7.92,4.18-1.79,3.29,1.08,6.6,3.33,9.41s5.22,5.63,6.86,8.93c3.56,7.13,1.9,13.93-4.15,19.1a44,44,0,0,1-28.13,10.94c-6.84.18-13.69-.18-20.54-.45-3.67-.15-5-1.75-5-5.3C278.34,382.82,278.33,378,278.33,372.65Z"/><path class="cls-1" d="M42.33,430.69V400.56c5.58,0,11-.35,16.39.13,3.26.3,6.58,1.9,7.24,5.73.63,3.66-2,5.47-4.9,6.83-.33.15-.64.36-1.15.65,1.07.5,1.72.83,2.39,1.1,2.92,1.18,5.23,3.17,5.23,6.39a6.73,6.73,0,0,1-5.61,6.84C55.65,429.37,49.26,429.86,42.33,430.69Zm5-3.38c3.86-.42,7.54-.4,10.94-1.37,1.5-.43,3.43-2.91,3.35-4.37-.08-1.7-1.85-4.24-3.42-4.74-3.35-1.07-7-1.05-10.87-1.51Zm0-14c3.56-.5,7-.6,10.11-1.6,1.44-.47,3.23-2.74,3.19-4.15s-2-3.53-3.44-3.93c-3.06-.84-6.38-.75-9.86-1.07Z"/><path class="cls-1" d="M505,430.83l-5.59-3.39c-3,2.47-7.24,3.22-11.74,2.53-5.15-.79-9-4.64-9.48-9.29-.49-5.26,2.16-9.51,7.19-11.52,4.46-1.78,8-1.46,14.77,1.47V399.08H505ZM492,427c5.76-.06,8.27-2.59,8.22-8.25,0-5-2.93-7.67-8.18-7.62s-8.85,3.36-8.78,8.21S486.73,427.08,492,427Z"/><path class="cls-1" d="M300.66,429.56c0-4.3,0-8.19,0-12.09-.07-4.25-2-6.06-6.41-6.12-4.87-.06-7.61,2.13-7.75,6.26-.06,1.95,0,3.91,0,5.86v6.06h-4.83V399h4.71v12a55.41,55.41,0,0,1,6.69-2.52c7.67-1.83,12.76,2.12,12.9,9.88.07,3.66,0,7.31,0,11.19Z"/><path class="cls-1" d="M453.39,419.88c0,4.14,1.8,6.54,5.74,6.95,3.34.35,6.76-.05,10.15,0,.71,0,1.41.69,2.12,1.06-.54.52-1,1.37-1.63,1.5-5.2,1.11-10.44,1.47-15.48-.64a10.25,10.25,0,0,1-3.23-16.95c4.25-4.3,13.45-5.1,18.37-1.58,3.14,2.26,4.19,5.42,4.15,9.63Zm0-2.76h15.07c-1-4.65-3.37-6.63-7.58-6.47S453.88,413.16,453.39,417.12Z"/><path class="cls-1" d="M422.94,419.89c.58,5.5,4.84,8.17,11.2,7.48,1.82-.2,3.63-.49,5.46-.57.51,0,1.06.57,1.59.89-.33.53-.53,1.3-1,1.56-4.22,2.26-15.68.8-19.32-2.38-3.83-3.35-4.23-9.83-.87-14,4.11-5.08,13.71-6.58,19-2.73a11.27,11.27,0,0,1,3.58,4.48c1.72,3.91.66,5.26-3.59,5.26Zm-.11-2.67H438c-.12-4-2-6-6-6.51C427.73,410.18,424.12,412.6,422.83,417.22Z"/><path class="cls-1" d="M241.31,420H221.43c.75,5.34,4.44,7.75,10.88,7.38,1.82-.1,3.64-.53,5.46-.51a3.57,3.57,0,0,1,2.35,1.56c-5.91,2.14-11.7,2.67-17.33.4-7.92-3.2-9-12.91-2.09-18,4.47-3.27,9.5-3.55,14.65-1.87A8.88,8.88,0,0,1,241.31,420Zm-19.76-2.79h14.86c.18-3.87-1.72-5.95-5.78-6.48C226.1,410.13,222.55,412.6,221.55,417.21Z"/><path class="cls-1" d="M343.34,436.83c2.16-1.34,4.29-2.5,6.23-3.92,2.51-1.83,3.08-4,1.32-6.92-3.28-5.53-6.18-11.28-9.28-17,3.9-1.22,5.95,0,7.36,3.43,1.7,4.15,4,8.06,6.31,12.69,2.17-4.59,4.36-8.6,6-12.84,1.23-3.26,3.07-4.42,6.46-3.45,0,.24.2.63.08.86-3.92,7.32-7.46,14.89-12,21.82-2.06,3.14-5.94,5.19-9.22,7.39C344.63,440.19,343.48,439,343.34,436.83Z"/><path class="cls-1" d="M78,419.9c-.48,6.18,6.37,7.78,11.18,7.45,1.69-.11,3.38-.5,5.07-.53.61,0,1.23.68,1.85,1-.38.51-.69,1.37-1.15,1.46-6.44,1.26-12.91,2-18.68-2.12-5.11-3.62-4.86-12.25.5-16.19,5-3.71,10.7-3.95,16.28-1.41a9.86,9.86,0,0,1,4,4.09c2.64,4.7,1.67,6.21-3.62,6.21Zm15.21-2.71c-1-4.76-3.39-6.69-7.64-6.52s-7,2.53-7.47,6.52Z"/><path class="cls-1" d="M338,419.88H318.2c-.07,3.94,1.8,6.49,5.59,6.93,3.34.38,6.77,0,10.15.08a7.29,7.29,0,0,1,2.3.84c-.6.6-1.19,1.72-1.79,1.72-4.82,0-9.72.27-14.44-.47-3.83-.59-6.35-3.52-7.06-7.53a10.49,10.49,0,0,1,3.9-10.43c4.17-3.47,12.33-4,17-1.12C337,411.9,338.32,414.77,338,419.88ZM318,417h15.23c-.84-4.42-3-6.26-7.06-6.34C322,410.58,319.06,412.79,318,417Z"/><path class="cls-1" d="M146.91,415.75c-.27-3.5-2.66-5.37-7-5-1.8.15-3.56.78-5.36,1-.64.08-1.34-.4-2-.63.38-.61.63-1.61,1.16-1.77,4.74-1.53,9.57-2.07,14.27.05a6.75,6.75,0,0,1,4.19,6.69c-.06,4.37,0,8.74,0,13.94l-5.94-1.85a12.2,12.2,0,0,1-11.3,1.4,9,9,0,0,1-4.76-4.76c-1-2.71.89-5.17,3.52-6C137.9,417.52,142.3,416.79,146.91,415.75Zm.81,4-1.12-1.23A97,97,0,0,0,137,420.8c-.87.29-1.76,2.11-1.7,3.17a4.54,4.54,0,0,0,2.11,2.93,6.29,6.29,0,0,0,7.75-1.11C146.59,424.41,146.9,421.81,147.72,419.75Z"/><path class="cls-1" d="M546,428.06c-3.07.63-6.55,1.87-10.06,1.95-5.67.14-8.83-3.12-9.13-8.81-.21-4,0-8,0-12.33h5.39c0,3.85-.21,7.73.05,11.57.42,6.14,5.8,8.92,10.91,5.44a8.87,8.87,0,0,0,3.15-5.66c.49-3.69.14-7.5.14-11.44h4.85v21.49Z"/><path class="cls-1" d="M410.86,429.63h-5.25c0-3.94,0-7.8,0-11.67,0-4.67-1.82-6.52-6.28-6.59-5.11-.08-7.73,2.05-7.83,6.51-.09,3.77,0,7.55,0,11.61h-5V408.81c2-.22,4.33-1.24,4.55,2.63,4.11-2.65,8.22-4.22,13-2.93,4.35,1.17,6.61,3.47,6.82,7.88S410.86,425.12,410.86,429.63Z"/><path class="cls-1" d="M166.06,408.82c0,3.8-.06,7.45,0,11.08.1,5.1,2.06,7.11,6.73,7.07,5.1,0,7.41-2.29,7.43-7.26,0-3.53,0-7,0-10.85h4.82V429.6c-2.12.21-4.44,1-4.38-3a15.06,15.06,0,0,1-12.66,3.3c-4.05-.76-6.7-3.37-6.93-7.4-.26-4.48-.06-9-.06-13.72Z"/><path class="cls-1" d="M125.69,410.29a9.51,9.51,0,0,1-2.75,1.09c-2.3.14-4.64-.12-7,0a8.09,8.09,0,0,0-7.87,7.65,7.82,7.82,0,0,0,7.24,7.83c2.53.26,5.12-.09,7.67,0a3.5,3.5,0,0,1,2.46,1.61c-6.17,2.08-12.15,2.67-17.78-.71-6.43-3.86-6.51-12.59-.14-16.74C113,407.5,119,407.43,125.1,409,125.3,409.4,125.5,409.85,125.69,410.29Z"/><path class="cls-1" d="M258.4,408.71l3.84-.23c.66-2.67-.28-7.05,5.16-5.46.17,1.67.36,3.44.57,5.5h7c.2,2.2.2,2.2-6.92,3.18,0,4.21-.28,8.47.08,12.68.34,4,4,2,6.85,3.13-.5.84-.8,2.13-1.49,2.39-5.61,2.1-10.44-1-10.77-7-.2-3.64,0-7.3,0-10.89C258.38,410.87,258.38,410.87,258.4,408.71Z"/><path class="cls-1" d="M576,410.61a12.29,12.29,0,0,1-2.92.78c-1.91,0-3.89-.57-5.72-.24-1.18.21-2.15,1.6-3.21,2.46.91,1,1.64,2.34,2.76,2.91,2.14,1.11,4.78,1.41,6.7,2.76,1.57,1.1,3.27,3.23,3.3,4.94,0,1.52-1.82,3.72-3.4,4.52-4.82,2.42-9.87,1.84-14.8.19l-.32-1.2a11.54,11.54,0,0,1,3-1c2.85-.09,5.72.25,8.54,0a3.3,3.3,0,0,0,2.07-2.48,3.71,3.71,0,0,0-1.91-2.73c-2.17-1.06-4.81-1.3-6.78-2.6-1.74-1.15-4-3.32-3.88-5s2.31-3.91,4.14-4.81c3.86-1.89,8-1.44,12,0Z"/><path class="cls-1" d="M192.59,427.59a13.94,13.94,0,0,1,3.14-.8c2.74-.05,5.5.31,8.22.08.89-.08,2.36-1.53,2.32-2.29a4.29,4.29,0,0,0-2-3c-1.91-1-4.15-1.42-6.15-2.3-2.36-1-5.37-2.39-4.51-5.32a8.54,8.54,0,0,1,5-5c3-.86,6.47-.32,9.72-.19.56,0,1.08,1,1.61,1.51-.73.4-1.46,1.12-2.2,1.13-1.92,0-3.91-.65-5.74-.32-1.32.24-2.43,1.63-3.63,2.51,1,1,1.89,2.39,3.11,3.05,1.69.92,3.69,1.22,5.49,2,2.46,1,4.76,2.47,4.57,5.52s-2.56,4.62-5.29,5.36a22.09,22.09,0,0,1-13.29-.51Z"/></g></g></svg>