<svg xmlns="http://www.w3.org/2000/svg" viewBox="0 0 310.44 310.44"><defs><style>.cls-1{fill:#0080ff;}.cls-2{fill:#fff;}</style></defs><g id="Layer_2" data-name="Layer 2"><g id="Layer_1-2" data-name="Layer 1"><path class="cls-1" d="M231.86,310.44H179.23l-24-7.93-23.82,7.93H78.57A78.58,78.58,0,0,1,0,231.86V78.57A78.57,78.57,0,0,1,78.57,0H231.86a78.58,78.58,0,0,1,78.58,78.57V231.86A78.58,78.58,0,0,1,231.86,310.44Z"/><path class="cls-2" d="M131.26,121.44v33.78H92.33v44.32h38.93v110.9h47.92V199.54H214.9l6.8-44.32H179.18V126.46c0-12.13,5.94-23.95,25-23.95H223.5V64.78a235.43,235.43,0,0,0-34.32-3C154.15,61.78,131.26,83,131.26,121.44Z"/></g></g></svg>