<svg xmlns="http://www.w3.org/2000/svg" xmlns:xlink="http://www.w3.org/1999/xlink" viewBox="0 0 386.17 386.17"><defs><style>.cls-1{fill:url(#linear-gradient);}.cls-2{fill:url(#linear-gradient-2);}.cls-3{fill:url(#linear-gradient-3);}</style><linearGradient id="linear-gradient" x1="118.41" y1="-77.74" x2="468.64" y2="257.49" gradientUnits="userSpaceOnUse"><stop offset="0" stop-color="#ffe185"/><stop offset="0.21" stop-color="#ffbb36"/><stop offset="0.38" stop-color="#ff5176"/><stop offset="0.52" stop-color="#f63395"/><stop offset="0.74" stop-color="#a436d2"/><stop offset="1" stop-color="#5f4eed"/></linearGradient><linearGradient id="linear-gradient-2" x1="19.59" y1="25.51" x2="369.82" y2="360.73" xlink:href="#linear-gradient"/><linearGradient id="linear-gradient-3" x1="18.83" y1="26.3" x2="369.05" y2="361.52" xlink:href="#linear-gradient"/></defs><g id="Layer_2" data-name="Layer 2"><g id="Layer_1-2" data-name="Layer 1"><path class="cls-1" d="M295.32,69A22.64,22.64,0,1,0,318,91.59,22.64,22.64,0,0,0,295.32,69Z"/><path class="cls-2" d="M194.67,98a95.11,95.11,0,1,0,95.1,95.11A95.21,95.21,0,0,0,194.67,98Zm0,156a60.92,60.92,0,1,1,60.91-60.91A61,61,0,0,1,194.67,254Z"/><path class="cls-3" d="M270.17,386.17H116a116.12,116.12,0,0,1-116-116V116A116.12,116.12,0,0,1,116,0H270.17a116.13,116.13,0,0,1,116,116V270.18A116.13,116.13,0,0,1,270.17,386.17ZM116,36.33A79.75,79.75,0,0,0,36.33,116V270.18A79.74,79.74,0,0,0,116,349.84H270.17a79.75,79.75,0,0,0,79.67-79.66V116a79.76,79.76,0,0,0-79.67-79.66Z"/></g></g></svg>